<?xml version="1.0" encoding="utf-8"?>
<!-- Generator: Adobe Illustrator 26.0.3, SVG Export Plug-In . SVG Version: 6.00 Build 0)  -->
<svg version="1.1" id="Layer_1" xmlns="http://www.w3.org/2000/svg" xmlns:xlink="http://www.w3.org/1999/xlink" x="0px" y="0px"
	 viewBox="0 0 855 259.7" style="enable-background:new 0 0 855 259.7;" xml:space="preserve">
<style type="text/css">
	.st0{fill:#45388F;}
	.st1{fill:#85C441;}
	.st2{fill:#F58029;}
	.st3{fill:#0093D0;}
	.st4{fill:#231F20;}
</style>
<g>
	<path d="M396.5,97.7c0-20.6,15.6-34.7,35.8-34.7c14.8,0,23.4,8.1,28.1,16.4l-12.3,6c-2.8-5.4-8.9-9.8-15.8-9.8
		c-12.2,0-21,9.4-21,22.1s8.9,22.1,21,22.1c6.9,0,13-4.2,15.8-9.8l12.3,5.9c-4.8,8.4-13.3,16.5-28.1,16.5
		C412.1,132.4,396.5,118.3,396.5,97.7z"/>
	<path d="M493.6,107.4h-10.5v23.9h-14.3V64h31.4c14,0,22.6,9.2,22.6,21.7c0,11.9-7.5,18.2-14.7,19.9l15.1,25.6h-16.4L493.6,107.4z
		 M498.2,76.6h-15v18.1h15c5.7,0,10.1-3.4,10.1-9.1S503.9,76.6,498.2,76.6z"/>
	<path d="M565.4,62.9c20.3,0,35.1,14.5,35.1,34.7s-14.8,34.7-35.1,34.7c-20.2,0-35-14.5-35-34.7S545.2,62.9,565.4,62.9z M565.4,75.6
		c-12.4,0-20.3,9.5-20.3,22.1c0,12.5,8,22.1,20.3,22.1c12.4,0,20.4-9.6,20.4-22.1C585.9,85.1,577.8,75.6,565.4,75.6z"/>
	<path d="M607.4,97.7c0-20.6,15.6-34.7,35.8-34.7c14.8,0,23.4,8.1,28.1,16.4l-12.3,6c-2.8-5.4-8.9-9.8-15.8-9.8
		c-12.2,0-21,9.4-21,22.1s8.9,22.1,21,22.1c6.9,0,13-4.2,15.8-9.8l12.3,5.9c-4.8,8.4-13.3,16.5-28.1,16.5
		C623,132.4,607.4,118.3,607.4,97.7z"/>
	<path d="M679.8,64h14.5v39.9c0,9.4,5.4,15.8,15.8,15.8s15.7-6.4,15.7-15.8V64h14.6v40.3c0,16.7-9.9,28.1-30.3,28.1
		s-30.3-11.5-30.3-28V64z"/>
	<path d="M756.9,110.9c4.7,4.9,12.1,9.1,21.4,9.1c7.9,0,11.7-3.6,11.7-7.5c0-4.9-6.2-6.3-13.6-8.2c-11-2.5-25.1-5.5-25.1-20.8
		c0-11.2,9.7-20.4,25.5-20.4c10.7,0,19.5,3.2,26.2,9.4L795,83c-5.4-5-12.7-7.4-19.5-7.4c-6.1,0-9.6,2.7-9.6,6.7
		c0,4.3,6.1,5.7,13.4,7.5c11.1,2.6,25.2,5.9,25.2,21.1c0,12.3-8.8,21.6-26.9,21.6c-12.9,0-22.2-4.3-28.4-10.7L756.9,110.9z"/>
</g>
<g>
	<g>
		<g>
			<path class="st0" d="M204.4,148.7L204.4,148.7l10.2,29.5l10.3-29.5h-0.1c1.3-3.2,2-15.3,2-19.4c0-11.3-5.5-12.4-12.2-12.4
				s-12.2,1-12.2,12.4C202.4,133.4,203.1,145.4,204.4,148.7z"/>
		</g>
		<g>
			<circle class="st0" cx="214.6" cy="99.3" r="11.4"/>
		</g>
	</g>
	<g>
		<g>
			<path class="st1" d="M373.8,165.6c-17.3-11.2-40.3-15.1-64.1-10.1c-4.5,1-8.8,1.9-12.8,2.9c-47.6,33.1-79.3,40.4-81.3,40.8
				c2.4,1,47.2,19.8,125,3.3C375.4,195.2,387.4,174.4,373.8,165.6z"/>
		</g>
		<g>
			<path class="st2" d="M296.9,158.5c8.2-5.7,17-12.2,26.1-19.6c27.8-22.4,32.4-42.2,18.5-41.3c-17.7,1.2-38.4,10.2-57.4,25.4
				c-12.4,10-22.6,19-30.9,27c-12.8,19.5-23.6,33.1-30.3,40.9C232.5,182.6,253.6,169.2,296.9,158.5z"/>
		</g>
		<g>
			<path class="st2" d="M215.4,199.4c0,0,0,0,0.1,0C215.5,199.3,215.5,199.3,215.4,199.4C215.5,199.3,215.4,199.4,215.4,199.4z"/>
		</g>
		<g>
			<path class="st0" d="M222.9,191.1c-4.4,5.2-7.1,8-7.4,8.2c0,0,0,0,0.1,0c2-0.4,33.7-7.8,81.3-40.8
				C253.6,169.2,232.5,182.6,222.9,191.1z"/>
		</g>
		<g>
			<path class="st3" d="M215.4,199.3L215.4,199.3c0.4-1.6,5-17.7,37.7-49.2c9-13.6,18.9-30.1,29.3-49.6
				c15.5-29.2,13.8-42.8,3.2-33.7c-13.4,11.5-27,29.1-37.5,49C212.7,182.7,215.4,199.4,215.4,199.3
				C215.4,199.4,215.4,199.3,215.4,199.3L215.4,199.3z"/>
		</g>
		<g>
			<path class="st3" d="M215.4,199.3L215.4,199.3C215.5,199.3,215.5,199.3,215.4,199.3L215.4,199.3z"/>
		</g>
		<g>
			<path class="st3" d="M215.4,199.3C215.4,199.3,215.4,199.4,215.4,199.3C215.4,199.4,215.5,199.3,215.4,199.3
				C215.5,199.3,215.5,199.3,215.4,199.3z"/>
		</g>
		<g>
			<path class="st0" d="M215.5,199.2C215.5,199.3,215.5,199.3,215.5,199.2C215.5,199.3,215.5,199.3,215.5,199.2
				c0.3-0.2,3-2.9,7.4-8.2c6.7-7.9,17.5-21.5,30.3-40.9C220.4,181.6,215.8,197.7,215.5,199.2z"/>
		</g>
		<g>
			<path class="st1" d="M120.1,155.5c-23.8-5.1-46.8-1.1-64.1,10.1c-13.6,8.8-1.6,29.6,33.3,37c77.7,16.5,122.6-2.3,125-3.3
				c-2-0.4-33.7-7.8-81.3-40.8C128.9,157.5,124.6,156.5,120.1,155.5z"/>
		</g>
		<g>
			<path class="st2" d="M214.3,199.3c0.1,0,0.1,0,0.1,0S214.4,199.3,214.3,199.3C214.4,199.3,214.3,199.3,214.3,199.3z"/>
		</g>
		<g>
			<path class="st2" d="M176.7,150.1c-8.3-8-18.5-17-30.9-27c-18.9-15.3-39.6-24.2-57.4-25.4c-13.9-1-9.3,18.8,18.5,41.3
				c9.1,7.4,17.8,13.9,26.1,19.6c43.3,10.7,64.4,24.1,74,32.6C200.3,183.2,189.5,169.6,176.7,150.1z"/>
		</g>
		<g>
			<path class="st0" d="M207,191.1c-9.7-8.5-30.8-21.9-74-32.6c47.6,33.1,79.3,40.4,81.3,40.8c0,0,0,0,0.1,0
				C214.1,199,211.4,196.3,207,191.1z"/>
		</g>
		<g>
			<path class="st3" d="M144.2,66.8c-10.5-9.1-12.3,4.5,3.2,33.7c10.3,19.5,20.3,35.9,29.3,49.6c32.7,31.5,37.3,47.6,37.7,49.1v0.1
				l0,0v0.1c0,0,2.8-16.6-32.6-83.5C171.2,95.9,157.6,78.4,144.2,66.8z"/>
		</g>
		<g>
			<path class="st3" d="M214.4,199.3L214.4,199.3L214.4,199.3L214.4,199.3z"/>
		</g>
		<g>
			<path class="st3" d="M214.4,199.3C214.4,199.3,214.4,199.4,214.4,199.3C214.4,199.4,214.4,199.3,214.4,199.3L214.4,199.3z"/>
		</g>
		<g>
			<path class="st0" d="M214.4,199.2c-0.4-1.5-4.9-17.7-37.7-49.1c12.8,19.5,23.6,33.1,30.3,40.9C211.4,196.3,214.1,199,214.4,199.2
				C214.4,199.3,214.4,199.3,214.4,199.2C214.4,199.3,214.4,199.3,214.4,199.2z"/>
		</g>
	</g>
</g>
<g>
	<path class="st4" d="M396.5,158c0-7.9,5.9-13.3,13.3-13.3c4.9,0,8.1,2.4,10.1,5.4l-3.3,1.7c-1.3-2.2-3.9-3.7-6.8-3.7
		c-5.4,0-9.4,4.1-9.4,9.9c0,5.7,4,9.9,9.4,9.9c2.9,0,5.4-1.6,6.8-3.7l3.3,1.7c-2,3-5.2,5.4-10.1,5.4
		C402.3,171.3,396.5,165.9,396.5,158z"/>
	<path class="st4" d="M421.9,161.5c0-5.4,3.6-9.8,9.4-9.8s9.4,4.4,9.4,9.8c0,5.4-3.6,9.8-9.4,9.8S421.9,166.9,421.9,161.5z
		 M437.1,161.5c0-3.5-2-6.7-5.8-6.7c-3.7,0-5.8,3.2-5.8,6.7s2.1,6.7,5.8,6.7C435,168.3,437.1,165.1,437.1,161.5z"/>
	<path class="st4" d="M467.2,158.5c0-2.2-1-3.6-3.2-3.6c-1.9,0-3.7,1.3-4.6,2.7v13.3h-3.5v-12.4c0-2.2-0.9-3.6-3.3-3.6
		c-1.8,0-3.6,1.3-4.5,2.7v13.3h-3.5v-18.6h3.5v2.6c0.8-1.2,3.2-3.1,6-3.1s4.5,1.5,5.1,3.5c1.1-1.7,3.5-3.5,6.3-3.5
		c3.4,0,5.3,1.9,5.3,5.6v13.5h-3.5L467.2,158.5L467.2,158.5z"/>
	<path class="st4" d="M498.2,158.5c0-2.2-1-3.6-3.2-3.6c-1.9,0-3.7,1.3-4.6,2.7v13.3h-3.5v-12.4c0-2.2-0.9-3.6-3.3-3.6
		c-1.8,0-3.6,1.3-4.5,2.7v13.3h-3.5v-18.6h3.5v2.6c0.8-1.2,3.2-3.1,6-3.1s4.5,1.5,5.1,3.5c1.1-1.7,3.5-3.5,6.3-3.5
		c3.4,0,5.3,1.9,5.3,5.6v13.5h-3.5L498.2,158.5L498.2,158.5z"/>
	<path class="st4" d="M518.1,168.3c-1.4,1.5-3.8,3-6.6,3c-4,0-5.9-2-5.9-5.9v-13.1h3.5v12c0,3.1,1.5,4,3.9,4c2.2,0,4.1-1.2,5.2-2.6
		v-13.4h3.5v18.6h-3.5v-2.6H518.1z"/>
	<path class="st4" d="M538.5,159c0-3.1-1.6-4.1-4-4.1c-2.2,0-4.1,1.3-5.1,2.7v13.3h-3.5v-18.6h3.5v2.6c1.2-1.5,3.7-3.1,6.6-3.1
		c3.9,0,6,2.1,6,6v13.1h-3.5V159z"/>
	<path class="st4" d="M545.4,147.6c0-1.2,1-2.2,2.2-2.2s2.2,1,2.2,2.2s-1,2.2-2.2,2.2C546.5,149.8,545.4,148.8,545.4,147.6z
		 M546,152.3h3.5v18.6H546V152.3z"/>
	<path class="st4" d="M555.4,166.8v-11.4h-3.1v-3h3.1v-5.1h3.5v5.1h3.8v3h-3.8V166c0,1.3,0.6,2.3,1.8,2.3c0.8,0,1.5-0.3,1.9-0.7
		l0.9,2.6c-0.7,0.7-1.8,1.2-3.6,1.2C556.9,171.3,555.4,169.7,555.4,166.8z"/>
	<path class="st4" d="M568.9,175.3c1.3,0,2.1-0.4,2.7-1.8l1.1-2.5l-7.7-18.8h3.7l5.8,14.6l5.8-14.6h3.7l-9.2,22.2
		c-1.2,2.9-3.2,4-5.9,4c-0.6,0-1.6-0.1-2.2-0.3l0.5-3.1C567.8,175.2,568.5,175.3,568.9,175.3z"/>
	<path class="st4" d="M604.9,161h-4.8v9.9h-3.9v-25.7H607c4.9,0,8.2,3.2,8.2,7.9c0,4.6-3.1,7.1-6.4,7.5l6.6,10.3H611L604.9,161z
		 M606.5,148.6H600v9h6.5c2.8,0,4.8-1.8,4.8-4.5C611.3,150.4,609.3,148.6,606.5,148.6z"/>
	<path class="st4" d="M626.4,151.8c5.6,0,9.1,4.4,9.1,10.1v0.8h-14.7c0.3,3.2,2.6,5.8,6.3,5.8c2,0,4.1-0.8,5.5-2.2l1.6,2.3
		c-1.8,1.8-4.5,2.8-7.5,2.8c-5.6,0-9.6-3.9-9.6-9.8C617.1,156.1,621,151.8,626.4,151.8z M620.7,160.2h11.4c-0.1-2.5-1.7-5.6-5.7-5.6
		C622.7,154.6,620.9,157.7,620.7,160.2z"/>
	<path class="st4" d="M639.3,165.9c1.3,1.4,3.7,2.7,6.2,2.7c2.6,0,4-1.2,4-2.9c0-1.8-2.1-2.3-4.5-2.8c-3.2-0.7-6.9-1.6-6.9-5.6
		c0-3,2.5-5.5,7.1-5.5c3.2,0,5.5,1.2,7.1,2.7l-1.5,2.4c-1.1-1.3-3.2-2.3-5.5-2.3c-2.4,0-3.8,1.1-3.8,2.6c0,1.6,2,2,4.3,2.5
		c3.2,0.7,7.1,1.6,7.1,5.9c0,3.2-2.6,5.7-7.5,5.7c-3.1,0-5.9-1-7.7-2.9L639.3,165.9z"/>
	<path class="st4" d="M664.9,151.8c5.6,0,9.1,4.4,9.1,10.1v0.8h-14.7c0.3,3.2,2.6,5.8,6.3,5.8c2,0,4.1-0.8,5.5-2.2l1.6,2.3
		c-1.8,1.8-4.5,2.8-7.5,2.8c-5.6,0-9.6-3.9-9.6-9.8C655.5,156.1,659.4,151.8,664.9,151.8z M659.2,160.2h11.4
		c-0.1-2.5-1.7-5.6-5.7-5.6C661.1,154.6,659.4,157.7,659.2,160.2z"/>
	<path class="st4" d="M689.2,168.8c-1.5,1.6-3.6,2.5-6.1,2.5c-3.1,0-6.5-2.1-6.5-6.2c0-4.2,3.4-6.1,6.5-6.1c2.5,0,4.7,0.8,6.1,2.5
		v-3.1c0-2.3-1.9-3.7-4.5-3.7c-2.1,0-3.9,0.8-5.6,2.5l-1.5-2.4c2.1-2,4.6-3,7.6-3c4,0,7.5,1.8,7.5,6.5v12.6h-3.5V168.8z
		 M689.2,163.6c-1-1.4-2.9-2.1-4.8-2.1c-2.5,0-4.3,1.5-4.3,3.7s1.8,3.7,4.3,3.7c1.9,0,3.7-0.7,4.8-2.1V163.6z"/>
	<path class="st4" d="M697.6,152.3h3.5v2.9c1.4-1.9,3.6-3.3,6.1-3.3v3.5c-0.3-0.1-0.7-0.1-1.2-0.1c-1.7,0-4.1,1.3-4.9,2.7v13h-3.5
		L697.6,152.3L697.6,152.3z"/>
	<path class="st4" d="M718.4,151.8c3.5,0,5.6,1.5,7,3.3l-2.3,2.1c-1.1-1.6-2.6-2.3-4.5-2.3c-3.7,0-6,2.8-6,6.7s2.4,6.7,6,6.7
		c1.9,0,3.4-0.8,4.5-2.3l2.3,2.1c-1.3,1.8-3.5,3.3-7,3.3c-5.6,0-9.5-4.2-9.5-9.8S712.8,151.8,718.4,151.8z"/>
	<path class="st4" d="M741.2,158.9c0-3.1-1.6-4-4-4c-2.2,0-4.1,1.3-5.1,2.7v13.3h-3.5v-25.7h3.5v9.7c1.2-1.5,3.7-3.1,6.6-3.1
		c4,0,6,2,6,5.9v13.1h-3.5V158.9z"/>
	<path class="st4" d="M757.9,161.5c0-5.4,3.6-9.8,9.4-9.8c5.8,0,9.4,4.4,9.4,9.8c0,5.4-3.6,9.8-9.4,9.8S757.9,166.9,757.9,161.5z
		 M773.1,161.5c0-3.5-2-6.7-5.8-6.7c-3.7,0-5.8,3.2-5.8,6.7s2.1,6.7,5.8,6.7C771,168.3,773.1,165.1,773.1,161.5z"/>
	<path class="st4" d="M793.1,159c0-3.1-1.6-4.1-4-4.1c-2.2,0-4.1,1.3-5.1,2.7v13.3h-3.5v-18.6h3.5v2.6c1.2-1.5,3.7-3.1,6.6-3.1
		c3.9,0,6,2.1,6,6v13.1h-3.5V159z"/>
	<path class="st4" d="M396.5,196.6c0-7.9,5.9-13.3,13.3-13.3c4.9,0,8.1,2.4,10.1,5.4l-3.3,1.7c-1.3-2.2-3.9-3.7-6.8-3.7
		c-5.4,0-9.4,4.1-9.4,9.9c0,5.7,4,9.9,9.4,9.9c2.9,0,5.4-1.6,6.8-3.7l3.3,1.7c-2,3-5.2,5.4-10.1,5.4
		C402.3,209.9,396.5,204.5,396.5,196.6z"/>
	<path class="st4" d="M423.1,183.7h3.5v25.7h-3.5V183.7z"/>
	<path class="st4" d="M430.9,186.1c0-1.2,1-2.2,2.2-2.2s2.2,1,2.2,2.2s-1,2.2-2.2,2.2C432,188.3,430.9,187.3,430.9,186.1z
		 M431.5,190.8h3.5v18.6h-3.5V190.8z"/>
	<path class="st4" d="M462.5,197c0-2.2-1-3.6-3.2-3.6c-1.9,0-3.7,1.3-4.6,2.7v13.3h-3.5V197c0-2.2-0.9-3.6-3.3-3.6
		c-1.8,0-3.6,1.3-4.5,2.7v13.3h-3.5v-18.6h3.5v2.6c0.8-1.2,3.2-3.1,6-3.1s4.5,1.5,5.1,3.5c1.1-1.7,3.5-3.5,6.3-3.5
		c3.4,0,5.3,1.9,5.3,5.6v13.5h-3.5L462.5,197L462.5,197z"/>
	<path class="st4" d="M482.4,207.4c-1.5,1.6-3.6,2.5-6.1,2.5c-3.1,0-6.5-2.1-6.5-6.2c0-4.2,3.4-6.1,6.5-6.1c2.5,0,4.7,0.8,6.1,2.5
		V197c0-2.3-1.9-3.7-4.5-3.7c-2.1,0-3.9,0.8-5.6,2.5l-1.5-2.4c2.1-2,4.6-3,7.6-3c4,0,7.5,1.8,7.5,6.5v12.6h-3.5V207.4z M482.4,202.2
		c-1-1.4-2.9-2.1-4.8-2.1c-2.5,0-4.3,1.5-4.3,3.7s1.8,3.7,4.3,3.7c1.9,0,3.7-0.7,4.8-2.1V202.2z"/>
	<path class="st4" d="M491.5,205.3v-11.4h-3.1v-3h3.1v-5.1h3.5v5.1h3.8v3H495v10.7c0,1.3,0.6,2.3,1.8,2.3c0.8,0,1.5-0.3,1.9-0.7
		l0.9,2.6c-0.7,0.7-1.8,1.2-3.6,1.2C493,209.9,491.5,208.2,491.5,205.3z"/>
	<path class="st4" d="M510.2,190.3c5.6,0,9.1,4.4,9.1,10.1v0.8h-14.7c0.3,3.2,2.6,5.8,6.3,5.8c2,0,4.1-0.8,5.5-2.2l1.6,2.3
		c-1.8,1.8-4.5,2.8-7.5,2.8c-5.6,0-9.6-3.9-9.6-9.8C500.9,194.7,504.8,190.3,510.2,190.3z M504.5,198.8h11.4
		c-0.1-2.5-1.7-5.6-5.7-5.6C506.5,193.2,504.7,196.2,504.5,198.8z"/>
	<path class="st4" d="M553.6,209.4H549c-0.7-0.6-1.6-1.5-2.5-2.5c-1.9,1.7-4.3,2.9-7.3,2.9c-4.5,0-8.1-2.4-8.1-7.2
		c0-4,2.7-6,5.6-7.6c-1.1-1.9-1.9-3.9-1.9-5.7c0-3.4,2.9-6,6.7-6c3.4,0,6.1,1.9,6.1,5.2c0,3.9-3.2,5.6-6.5,7.2c1,1.3,2,2.5,2.7,3.4
		c1,1.1,1.9,2.2,2.8,3.2c1.3-2,2.2-4.2,2.7-5.6l2.9,1.3c-0.9,2-2,4.4-3.5,6.5C550.1,206.1,551.7,207.7,553.6,209.4z M544.4,204.9
		c-1.4-1.5-2.7-2.9-3.4-3.7c-1-1.2-2-2.5-3-3.9c-1.9,1.2-3.4,2.7-3.4,5.1c0,3,2.3,4.7,4.8,4.7C541.3,207.1,543,206.2,544.4,204.9z
		 M539.6,193.5c2.6-1.2,4.7-2.5,4.7-4.9c0-1.7-1.2-2.7-2.8-2.7c-1.8,0-3.4,1.4-3.4,3.5C538.2,190.7,538.8,192.1,539.6,193.5z"/>
	<path class="st4" d="M566.1,183.7h3.9v15.5c0,4.4,2.4,7.2,6.9,7.2s6.9-2.8,6.9-7.2v-15.5h3.9v15.6c0,6.4-3.6,10.6-10.8,10.6
		s-10.8-4.2-10.8-10.5L566.1,183.7L566.1,183.7z"/>
	<path class="st4" d="M592.8,190.8h3.5v2.9c1.4-1.9,3.6-3.3,6.1-3.3v3.5c-0.3-0.1-0.7-0.1-1.2-0.1c-1.7,0-4.1,1.3-4.9,2.7v13h-3.5
		L592.8,190.8L592.8,190.8z"/>
	<path class="st4" d="M605.3,183.7h3.5v9.8c1.5-2,3.7-3.2,6.1-3.2c4.9,0,8.3,3.8,8.3,9.8c0,6.1-3.5,9.8-8.3,9.8
		c-2.5,0-4.7-1.3-6.1-3.1v2.7h-3.5V183.7z M613.9,206.8c3.5,0,5.6-2.8,5.6-6.7s-2.2-6.7-5.6-6.7c-2.1,0-4.2,1.3-5.2,2.8v7.9
		C609.7,205.6,611.8,206.8,613.9,206.8z"/>
	<path class="st4" d="M638.5,207.4c-1.5,1.6-3.6,2.5-6.1,2.5c-3.1,0-6.5-2.1-6.5-6.2c0-4.2,3.4-6.1,6.5-6.1c2.5,0,4.7,0.8,6.1,2.5
		V197c0-2.3-1.9-3.7-4.5-3.7c-2.1,0-3.9,0.8-5.6,2.5l-1.5-2.4c2.1-2,4.6-3,7.6-3c4,0,7.5,1.8,7.5,6.5v12.6h-3.5V207.4z M638.5,202.2
		c-1-1.4-2.9-2.1-4.8-2.1c-2.5,0-4.3,1.5-4.3,3.7s1.8,3.7,4.3,3.7c1.9,0,3.7-0.7,4.8-2.1V202.2z"/>
	<path class="st4" d="M659.5,197.5c0-3.1-1.6-4.1-4-4.1c-2.2,0-4.1,1.3-5.1,2.7v13.3h-3.5v-18.6h3.5v2.6c1.2-1.5,3.7-3.1,6.6-3.1
		c3.9,0,6,2.1,6,6v13.1h-3.5V197.5z"/>
	<path class="st4" d="M677.9,202.8c1.7,1.9,4.5,3.6,8.1,3.6c4.2,0,5.6-2.1,5.6-4c0-2.7-2.9-3.5-6.2-4.3c-4.1-1.1-8.9-2.3-8.9-7.5
		c0-4.2,3.7-7.3,9.1-7.3c4,0,7.1,1.3,9.4,3.6l-2.2,2.9c-2-2.1-4.7-3-7.4-3c-2.9,0-4.8,1.5-4.8,3.6c0,2.3,2.8,3,6,3.9
		c4.2,1.1,9.1,2.4,9.1,7.9c0,4-2.8,7.7-9.7,7.7c-4.6,0-7.9-1.7-10.1-4.1L677.9,202.8z"/>
	<path class="st4" d="M707.7,190.3c3.5,0,5.6,1.5,7,3.3l-2.3,2.1c-1.1-1.6-2.6-2.3-4.5-2.3c-3.7,0-6,2.8-6,6.7s2.4,6.7,6,6.7
		c1.9,0,3.4-0.8,4.5-2.3l2.3,2.1c-1.3,1.8-3.5,3.3-7,3.3c-5.6,0-9.5-4.2-9.5-9.8C698.3,194.5,702.1,190.3,707.7,190.3z"/>
	<path class="st4" d="M717.4,186.1c0-1.2,1-2.2,2.2-2.2s2.2,1,2.2,2.2s-1,2.2-2.2,2.2C718.5,188.3,717.4,187.3,717.4,186.1z
		 M718,190.8h3.5v18.6H718V190.8z"/>
	<path class="st4" d="M734.5,190.3c5.6,0,9.1,4.4,9.1,10.1v0.8h-14.7c0.3,3.2,2.6,5.8,6.3,5.8c2,0,4.1-0.8,5.5-2.2l1.6,2.3
		c-1.8,1.8-4.5,2.8-7.5,2.8c-5.6,0-9.6-3.9-9.6-9.8C725.2,194.7,729.1,190.3,734.5,190.3z M728.8,198.8h11.4
		c-0.1-2.5-1.7-5.6-5.7-5.6C730.8,193.2,729,196.2,728.8,198.8z"/>
	<path class="st4" d="M759.9,197.5c0-3.1-1.6-4.1-4-4.1c-2.2,0-4.1,1.3-5.1,2.7v13.3h-3.5v-18.6h3.5v2.6c1.2-1.5,3.7-3.1,6.6-3.1
		c3.9,0,6,2.1,6,6v13.1h-3.5V197.5z"/>
	<path class="st4" d="M776.7,190.3c3.5,0,5.6,1.5,7,3.3l-2.3,2.1c-1.1-1.6-2.6-2.3-4.5-2.3c-3.7,0-6,2.8-6,6.7s2.4,6.7,6,6.7
		c1.9,0,3.4-0.8,4.5-2.3l2.3,2.1c-1.3,1.8-3.5,3.3-7,3.3c-5.6,0-9.5-4.2-9.5-9.8S771.1,190.3,776.7,190.3z"/>
	<path class="st4" d="M795.1,190.3c5.6,0,9.1,4.4,9.1,10.1v0.8h-14.7c0.3,3.2,2.6,5.8,6.3,5.8c2,0,4.1-0.8,5.5-2.2l1.6,2.3
		c-1.8,1.8-4.5,2.8-7.5,2.8c-5.6,0-9.6-3.9-9.6-9.8C785.7,194.7,789.6,190.3,795.1,190.3z M789.4,198.8h11.4
		c-0.1-2.5-1.7-5.6-5.7-5.6C791.3,193.2,789.6,196.2,789.4,198.8z"/>
</g>
</svg>
